<svg xmlns="http://www.w3.org/2000/svg" viewBox="0 0 24 24" fill="#64748b" aria-hidden="true">
  <path d="M12 10c-1.1 0-2 .9-2 2s.9 2 2 2 2-.9 2-2-.9-2-2-2zm-4.5 4c-.83 0-1.5.67-1.5 1.5S6.67 17 7.5 17 9 16.33 9 15.5 8.33 14 7.5 14zm9 0c-.83 0-1.5.67-1.5 1.5s.67 1.5 1.5 1.5 1.5-.67 1.5-1.5-.67-1.5-1.5-1.5zm-4.5 2c-.83 0-1.5.67-1.5 1.5s.67 1.5 1.5 1.5 1.5-.67 1.5-1.5-.67-1.5-1.5-1.5zM12 2C9.24 2 7 4.24 7 7c0 1.5.5 2.9 1.4 4 .9 1.1 2.1 1.8 3.6 1.8s2.7-.7 3.6-1.8c.9-1.1 1.4-2.5 1.4-4 0-2.76-2.24-5-5-5z"/>
</svg>
