<?xml version="1.0" encoding="UTF-8"?>
<svg id="logo_xA0_Image" xmlns="http://www.w3.org/2000/svg" version="1.1" viewBox="0 0 99 99">
  <!-- Generator: Adobe Illustrator 29.2.1, SVG Export Plug-In . SVG Version: 2.1.0 Build 116)  -->
  <defs>
    <style>
      .st0 {
        fill: #fff;
      }

      .st1 {
        fill: #64594b;
      }
    </style>
  </defs>
  <path class="st0" d="M84.3,50.9c-3.9-3-7.8-6-11.7-9-.2-.2-.4-.3-.4-.6-.8-5.5-2.8-10.5-5.6-15.2-1.6-2.8-3.4-5.5-5.1-8.3-1.2-1.9-2.3-3.9-3.4-5.8,0-.1-.2-.3-.3-.4-.5.4-.8,1-1.1,1.5-.6,1.1-.9,2.3-1.1,3.6-.3,1.3-.5,2.6-.7,3.9,0,.2,0,.3-.2.6-.2-.3-.4-.5-.6-.8-.7-1-1.3-2-2-3-.6-.9-1.4-1.8-2.3-2.5,0,0-.2-.1-.2-.2,0,0,0,0-.2,0,.1.5.3.9.4,1.4.6,2.5.7,5.1.6,7.7-.1,2.6-.5,5.3-1,7.8,0,.4-.3.6-.6.8-3.7,1.9-7.2,4.2-10.4,7-2.3,2-4.4,4.2-6,6.8-.3.5-.7,1.1-1,1.6-1.3,2-3,3.6-5,4.8-2.3,1.4-4.6,2.7-6.9,4-1.4.8-2.9,1.6-4.3,2.4-1,.6-2,1.3-3,2-.5.4-1,.9-1.3,1.4-.8,1.1-.6,2.3.4,3.2.2.1.3.3.5.4,1.1.8,2.1,1.7,3,2.8.9,1.2,2.2,1.9,3.6,2.4,1.9.8,3.9,1.1,6,1.4,3.1.4,6.2.4,9.3.4.2,0,.3,0,.6,0,0,.2-.1.3-.2.4-.7.9-1.5,1.8-2.5,2.4-1,.7-2.1,1.4-3.1,2.1-1.1.7-2.2,1.5-3.3,2.3-.6.4-1,1-1.6,1.5.1.2.2.3.3.4,1.2,1.3,2.8,2.1,4.5,2.4,2,.3,4,.1,5.9-.3,3.1-.7,6.1-1.7,9.1-2.8,1-.4,2-.7,3.1-.9.7,0,1.3,0,1.8.4.5.5,1.1,1,1.5,1.5.5.7,1,1.5,1.4,2.3,1.7,3.4,3.4,6.8,5.1,10.3.5,1,.9,2,1.3,3,0,0,0,.1,0,.2,1.6-.3,3.2-.6,4.7-1,0-.3,0-.5,0-.8-.1-4.4-.6-8.7-1.8-12.9-.5-1.8-1.3-3.4-2.3-5-1.1-1.8-2.6-2.6-4.6-2.6-1.3,0-2.6,0-3.9,0-1,0-1.9,0-2.9-.2-1.9-.3-3.1-1.4-3.6-3.3,0,0,0-.2,0-.2,0,0,0,0,0-.1,0,0,0,0-.2,0-1.2-.3-2-1-2.4-2.2-.2-.5-.4-.9-.6-1.3-.3-.7-.7-1.4-1.2-1.9-.6-.6-.6-1.4-.3-2.1.1-.3.2-.5.4-.8.2-.3.4-.7.6-1,1.7-2.2,2.9-4.7,3.8-7.3,0-.2.2-.5.3-.7,1.1-3,3-5.3,5.5-7.2,1.4-1,2.8-2,4.2-3.1.4-.3.8-.7,1.2-1,1.1-1,1.3-2.2.8-3.6-.2-.6-.7-1.1-1.1-1.7-.3-.5-.8-.8-1.1-1.3-.3-.4-.5-1-.8-1.5,0-.2,0-.4-.1-.7.3.1.5.2.7.3,1.3.7,2.4,1.5,3.5,2.4.7.5,1.4,1,2.1,1.5.1.1.3.2.5.3.1-.9,0-1.6-.2-2.4-.3-1.4-.6-2.8-.9-4.3-.1-.8-.2-1.7,0-2.5,0-.2.1-.5.2-.7.5-.1,1,0,1.4.3,2.1,1.3,3.8,2.9,5.4,4.7,1.3,1.5,2.6,3.1,3.8,4.7,1.6,2,3.3,4,5.1,5.8.8.8,1.6,1.6,2.4,2.4,1.7,1.7,3,3.6,4.2,5.7,1.4,2.4,2.9,4.8,4.8,6.9,1.5,1.7,3,3.3,4.5,4.9,1.5,1.6,3.1,3.1,4.6,4.6,0,0,.1.1.2.2,1.3-2.9,2.3-6,3-9.1-.1,0-.2-.1-.3-.2-4.6-2.8-8.9-6-13.2-9.3Z"/>
  <path class="st1" d="M49.5,0C22.2,0,0,22.2,0,49.5s22.2,49.5,49.5,49.5,5.6-.2,8.3-.7c0,0,0-.1,0-.2-.4-1-.8-2.1-1.3-3-1.7-3.4-3.4-6.9-5.1-10.3-.4-.8-.9-1.6-1.4-2.3-.4-.6-.9-1.1-1.5-1.5-.5-.4-1.1-.5-1.8-.4-1.1.2-2.1.5-3.1.9-3,1.1-6,2.1-9.1,2.8-1.9.4-3.9.6-5.9.3-1.8-.3-3.3-1-4.5-2.4-.1-.1-.2-.2-.3-.4.5-.5,1-1.1,1.6-1.5,1.1-.8,2.2-1.5,3.3-2.3,1-.7,2.1-1.4,3.1-2.1,1-.7,1.8-1.5,2.5-2.4,0-.1.1-.2.2-.4-.2,0-.4,0-.6,0-3.1,0-6.2,0-9.3-.4-2-.2-4-.6-6-1.4-1.4-.5-2.6-1.3-3.6-2.4-.9-1.1-1.9-2-3-2.8-.2-.1-.3-.3-.5-.4-1-.9-1.2-2.1-.4-3.2.4-.5.8-1,1.3-1.4,1-.7,2-1.4,3-2,1.4-.8,2.9-1.6,4.3-2.4,2.3-1.3,4.6-2.6,6.9-4,2-1.2,3.7-2.8,5-4.8.4-.5.7-1,1-1.6,1.6-2.6,3.7-4.8,6-6.8,3.1-2.8,6.6-5.1,10.4-7,.3-.2.5-.4.6-.8.5-2.6.9-5.2,1-7.8.1-2.6,0-5.2-.6-7.7-.1-.5-.2-.9-.4-1.4,0,0,.1,0,.2,0,0,0,.2.1.2.2.9.7,1.6,1.6,2.3,2.5.7,1,1.3,2,2,3,.2.2.3.5.6.8,0-.3.1-.5.2-.6.2-1.3.5-2.6.7-3.9.2-1.2.5-2.4,1.1-3.6.3-.5.6-1.1,1.1-1.5,0,.2.2.3.3.4,1.1,1.9,2.2,3.9,3.4,5.8,1.7,2.8,3.4,5.5,5.1,8.3,2.8,4.7,4.8,9.8,5.6,15.2,0,.3.2.5.4.6,3.9,3,7.8,6,11.7,9,4.3,3.3,8.6,6.4,13.2,9.3,0,0,.2.1.3.2.8-3.5,1.2-7.1,1.2-10.9C99,22.2,76.8,0,49.5,0Z"/>
  <path class="st1" d="M90,64.7c-1.5-1.6-3.1-3.2-4.5-4.9-1.9-2.1-3.4-4.5-4.8-6.9-1.2-2-2.6-4-4.2-5.7-.8-.8-1.6-1.6-2.4-2.4-1.8-1.8-3.5-3.8-5.1-5.8-1.2-1.6-2.5-3.1-3.8-4.7-1.6-1.8-3.3-3.4-5.4-4.7-.4-.3-.8-.4-1.4-.3,0,.2-.2.4-.2.7-.2.8-.2,1.7,0,2.5.3,1.4.6,2.8.9,4.3.1.8.3,1.6.2,2.4-.2-.1-.4-.2-.5-.3-.7-.5-1.4-1-2.1-1.5-1.1-.9-2.2-1.7-3.5-2.4-.2-.1-.4-.2-.7-.3,0,.3,0,.5.1.7.2.5.5,1,.8,1.5.3.5.8.8,1.1,1.3.4.5.9,1.1,1.1,1.7.6,1.4.4,2.7-.8,3.6-.4.3-.8.7-1.2,1-1.4,1-2.8,2-4.2,3.1-2.5,1.9-4.4,4.2-5.5,7.2,0,.2-.2.5-.3.7-1,2.6-2.1,5.1-3.8,7.3-.2.3-.4.7-.6,1-.1.2-.3.5-.4.8-.3.8-.2,1.5.3,2.1.5.6.9,1.2,1.2,1.9.2.4.4.9.6,1.3.5,1.1,1.2,1.9,2.4,2.2,0,0,.1,0,.2,0,0,0,0,0,0,.1,0,0,0,.2,0,.2.5,1.9,1.7,3,3.6,3.3.9.1,1.9.2,2.9.2,1.3,0,2.6,0,3.9,0,2,0,3.6.9,4.6,2.6.9,1.6,1.7,3.2,2.3,5,1.3,4.2,1.7,8.5,1.8,12.9,0,.2,0,.5,0,.8,14.5-3.9,26.3-14.3,32.3-27.8,0,0-.1-.1-.2-.2-1.5-1.5-3.1-3.1-4.6-4.6Z"/>
</svg>